<?xml version="1.0" standalone="no"?>
<!DOCTYPE svg PUBLIC "-//W3C//DTD SVG 20010904//EN" "http://www.w3.org/TR/2001/REC-SVG-20010904/DTD/svg10.dtd">
<svg version="1.0" xmlns="http://www.w3.org/2000/svg" width="1024.000000pt" height="1024.000000pt"
    viewBox="0 0 1024.000000 1024.000000" preserveAspectRatio="xMidYMid meet">

    <g transform="translate(0.000000,1024.000000) scale(0.100000,-0.100000)" fill="#000000" stroke="none">
        <path d="M4800 7724 c-14 -2 -97 -11 -185 -19 -228 -20 -349 -41 -435 -75 -41
-16 -95 -34 -119 -40 -24 -6 -51 -16 -60 -21 -9 -5 -62 -29 -118 -54 -120 -52
-271 -128 -328 -164 -22 -14 -56 -34 -75 -44 -19 -11 -46 -29 -60 -42 -14 -12
-56 -44 -95 -69 -147 -100 -371 -309 -435 -408 -15 -23 -44 -57 -64 -75 -20
-18 -36 -38 -36 -44 0 -6 -18 -33 -40 -59 -21 -26 -58 -82 -81 -126 -23 -43
-50 -90 -59 -104 -22 -31 -100 -193 -100 -207 0 -6 -16 -50 -36 -99 -70 -174
-99 -403 -84 -661 12 -203 24 -236 95 -273 45 -23 59 -25 174 -24 69 1 140 3
156 5 29 4 30 3 33 -41 5 -68 19 -70 37 -4 77 275 150 453 242 591 58 87 255
282 378 372 61 45 115 85 121 90 27 22 147 91 159 91 7 0 18 6 24 14 11 14
152 67 266 102 84 25 367 31 485 10 96 -16 230 -50 257 -65 10 -5 52 -19 93
-31 100 -30 154 -59 333 -182 166 -113 333 -292 430 -458 101 -173 169 -397
184 -601 7 -104 -12 -290 -38 -372 -10 -33 -19 -63 -19 -68 0 -5 -11 -32 -24
-61 -12 -29 -26 -61 -29 -70 -14 -41 -145 -224 -196 -274 -61 -61 -151 -132
-219 -171 -69 -41 -288 -134 -372 -159 -22 -6 -23 -5 -11 10 7 9 18 16 23 16
14 0 38 27 38 43 0 18 17 32 50 42 32 10 149 86 220 143 152 122 295 271 278
288 -3 3 -35 -23 -69 -58 -81 -80 -134 -122 -234 -186 -44 -29 -89 -58 -100
-67 -10 -8 -31 -15 -47 -15 -15 0 -31 -7 -36 -15 -4 -9 -23 -18 -40 -20 -18
-2 -37 -7 -44 -11 -6 -4 -9 -1 -6 7 3 8 21 19 42 24 20 6 37 15 37 20 -1 20
11 45 19 40 11 -7 20 19 13 44 -3 12 -1 21 6 21 6 0 11 10 11 23 0 12 10 29
24 37 85 54 132 105 167 183 7 15 15 27 18 27 5 0 29 43 61 111 5 8 18 51 31
95 60 212 8 459 -140 654 -77 102 -124 148 -212 205 -180 119 -352 163 -579
150 -112 -6 -148 -11 -295 -41 -161 -34 -324 -110 -455 -214 -57 -45 -157
-150 -194 -203 -88 -129 -131 -316 -105 -462 13 -72 71 -227 117 -310 18 -33
40 -77 50 -97 9 -21 22 -38 27 -38 6 0 16 -9 23 -20 9 -15 9 -20 0 -20 -9 0
-9 -3 0 -12 7 -7 18 -13 25 -13 7 0 12 -5 12 -11 0 -6 23 -32 50 -58 54 -50
54 -63 -1 -18 -196 159 -259 251 -335 494 -19 59 -38 108 -42 108 -4 0 -5 -24
-1 -52 16 -143 62 -257 161 -399 48 -69 213 -210 254 -216 22 -3 53 -17 124
-56 48 -26 61 -37 63 -59 3 -23 9 -28 33 -30 16 0 35 -1 42 -2 6 -1 11 5 10
12 -4 16 26 15 57 -3 14 -8 45 -15 70 -15 41 -1 43 -2 20 -11 -55 -23 -209
-11 -310 24 -56 19 -165 91 -188 124 -23 32 -138 147 -184 185 -21 16 -38 34
-38 39 0 18 -83 134 -87 122 -3 -7 3 -25 12 -42 12 -25 13 -29 1 -25 -17 7
-79 139 -118 253 -49 144 -61 340 -27 453 11 38 18 75 16 81 -5 14 -57 -98
-57 -122 0 -9 -5 -22 -12 -29 -15 -15 -15 -205 1 -292 7 -36 21 -88 31 -117
30 -80 168 -345 198 -378 15 -16 39 -43 52 -59 l25 -29 -45 26 c-52 31 -144
136 -196 225 -29 49 -39 60 -46 48 -5 -9 -5 -24 2 -35 5 -11 10 -26 9 -33 0
-7 -8 3 -16 22 -34 75 -73 243 -73 310 0 25 -3 63 -7 85 -6 36 -7 38 -14 15
-21 -74 -4 -249 36 -367 22 -65 32 -149 16 -139 -20 13 -76 164 -100 271 -6
28 -13 64 -17 80 l-7 30 -8 -30 c-10 -34 7 -114 45 -220 34 -95 75 -167 170
-298 69 -96 169 -219 210 -259 16 -16 26 -31 22 -35 -3 -3 -6 -1 -6 5 0 7 -7
12 -16 12 -9 0 -34 16 -56 35 -21 20 -50 41 -64 47 -13 6 -24 16 -24 21 0 17
-34 36 -63 37 -16 0 -37 5 -47 10 -22 12 -37 -4 -22 -23 19 -22 52 -122 52
-154 0 -20 8 -41 21 -54 11 -11 18 -23 15 -27 -8 -7 -70 60 -128 138 -23 30
-44 57 -48 60 -3 3 -19 28 -34 55 -64 112 -105 206 -141 318 -52 164 -58 158
-20 -18 18 -84 94 -275 120 -301 8 -9 15 -20 15 -25 0 -5 15 -34 33 -65 17
-31 42 -73 53 -95 26 -45 123 -159 136 -159 5 0 29 -13 53 -30 24 -16 48 -30
54 -30 14 0 81 -60 81 -73 0 -21 75 -100 108 -114 19 -8 51 -24 71 -36 55 -34
168 -78 241 -93 148 -32 256 -39 610 -36 210 1 391 -2 442 -9 66 -8 97 -8 123
1 20 7 83 13 141 15 94 4 104 2 104 -14 0 -25 -33 -56 -96 -94 -31 -18 -63
-37 -72 -42 -52 -31 -151 -82 -219 -112 -43 -19 -95 -42 -116 -51 -37 -17 -56
-49 -42 -71 11 -20 116 -43 188 -42 141 1 253 14 332 38 44 13 109 33 145 44
36 11 124 49 196 85 72 35 137 64 144 64 7 0 27 11 44 24 17 12 45 30 61 39
17 8 48 32 70 54 22 21 65 58 95 83 30 25 118 110 195 189 77 80 188 192 246
250 59 59 116 126 129 151 12 25 38 62 56 83 19 20 34 42 34 47 0 12 35 63 68
100 13 14 32 42 43 63 11 20 23 37 29 37 20 0 204 352 239 459 12 36 28 74 35
86 8 12 20 50 26 83 6 34 17 77 26 97 15 36 18 155 4 155 -5 0 -13 -24 -20
-52 -22 -97 -62 -233 -71 -242 -5 -6 -9 -16 -9 -24 0 -24 -153 -325 -184 -362
-7 -8 -26 -38 -41 -66 -18 -32 -34 -50 -42 -47 -9 4 -11 0 -6 -13 4 -11 3 -15
-4 -11 -11 7 -30 -9 -33 -28 -1 -5 -6 -17 -11 -25 -7 -13 -8 -12 -9 3 0 19
-15 23 -25 7 -10 -17 -51 -11 -78 10 -27 22 -42 26 -32 10 3 -6 1 -10 -5 -10
-6 0 -40 -29 -75 -65 -36 -36 -70 -65 -75 -65 -6 0 -10 -7 -10 -15 0 -9 -7
-18 -15 -21 -8 -4 -15 -12 -15 -19 0 -13 -29 -29 -37 -21 -5 4 194 227 213
239 7 4 43 42 79 85 37 42 74 86 84 97 52 58 154 191 185 240 62 96 135 251
161 342 32 110 26 134 -18 67 -69 -106 -93 -120 -151 -85 -66 38 -80 81 -91
266 -4 73 -15 135 -31 185 -23 74 -32 108 -59 225 -7 33 -34 105 -60 160 -26
55 -60 128 -76 161 -25 55 -48 87 -119 171 -10 12 -39 61 -65 110 -25 48 -56
97 -68 108 -12 11 -35 42 -51 69 -24 40 -96 126 -133 158 -100 85 -116 105
-117 149 -1 42 1 44 29 47 51 6 130 -17 248 -73 131 -63 182 -97 253 -175 29
-31 71 -69 93 -84 22 -16 67 -63 100 -105 60 -77 136 -155 181 -185 25 -17 95
-22 104 -8 3 5 -2 27 -10 50 -21 64 -133 282 -143 282 -5 0 -13 10 -17 22 -3
12 -43 60 -88 106 -44 47 -96 101 -115 121 -39 41 -70 104 -71 141 0 20 9 30
42 45 52 25 63 56 38 111 -9 22 -32 53 -51 70 -19 17 -79 75 -135 128 -104
101 -170 152 -264 207 -30 18 -62 38 -71 46 -47 40 -458 187 -622 223 -184 40
-362 62 -532 65 -99 2 -191 1 -205 -1z m786 -925 c43 -22 119 -61 169 -86 78
-39 103 -55 162 -103 12 -10 76 -56 123 -88 14 -9 34 -27 45 -39 11 -12 47
-45 81 -75 33 -29 93 -91 133 -138 40 -47 80 -94 89 -105 130 -149 299 -493
351 -710 68 -288 45 -640 -59 -901 -89 -224 -275 -451 -540 -657 -77 -60 -182
-135 -224 -161 -28 -17 -65 -41 -81 -52 -38 -28 -286 -148 -345 -168 -57 -19
-66 -12 -11 10 22 9 41 20 41 25 0 5 9 9 20 9 11 0 20 4 20 9 0 14 -52 23 -63
12 -6 -6 -22 -11 -36 -11 -14 0 -53 -7 -88 -16 -61 -15 -110 -15 -68 1 120 44
213 84 298 127 100 50 272 162 313 202 11 12 38 37 60 56 51 45 137 145 207
242 49 66 90 137 168 288 10 19 34 91 54 160 46 159 69 338 61 482 -11 185
-71 410 -145 538 -86 149 -137 221 -208 295 -74 78 -244 215 -295 237 -28 13
-48 45 -48 78 0 26 22 25 45 0 10 -11 20 -18 23 -16 2 3 21 -2 43 -9 21 -8 39
-10 39 -5 0 5 -33 33 -72 63 -40 30 -85 67 -101 81 -15 14 -48 37 -72 52 -25
14 -53 36 -63 47 -9 12 -83 55 -163 96 -115 58 -153 73 -178 69 -21 -3 -31 0
-31 8 0 17 17 27 25 14 4 -6 12 -5 21 5 9 8 21 15 28 15 15 0 275 -127 296
-145 8 -7 60 -36 115 -65 92 -49 201 -115 283 -172 60 -42 230 -176 236 -187
4 -6 17 -16 29 -22 l21 -12 -18 29 c-22 34 -97 109 -179 178 -32 27 -68 58
-80 69 -64 55 -222 155 -281 177 -58 22 -67 28 -63 47 4 24 -9 33 -48 33 -28
0 -98 29 -71 30 16 0 15 3 -8 21 -14 11 -26 29 -26 40 0 10 -4 19 -10 19 -5 0
-10 5 -10 10 0 7 6 7 19 1 15 -9 20 -7 24 9 3 13 10 18 21 14 9 -3 16 -2 16 2
0 9 -48 41 -82 56 -21 9 -24 28 -5 28 7 0 49 -18 93 -41z m171 -565 c-3 -3
-12 -4 -19 -1 -8 3 -5 6 6 6 11 1 17 -2 13 -5z m46 -2051 c-25 -65 -236 -293
-312 -338 -19 -11 -51 -30 -70 -42 -55 -33 -150 -78 -211 -100 -91 -34 -385
-93 -417 -84 l-28 8 30 7 c17 5 44 10 60 13 176 27 394 113 543 214 150 101
184 130 365 302 45 42 49 44 40 20z m-1018 -133 c-3 -5 -14 -10 -23 -9 -14 0
-13 2 3 9 27 11 27 11 20 0z m145 -64 c-18 -17 -90 -38 -90 -26 0 9 67 39 90
39 13 1 13 -1 0 -13z m-267 -73 c-7 -2 -19 -2 -25 0 -7 3 -2 5 12 5 14 0 19
-2 13 -5z m220 -94 c-5 -5 -34 -12 -64 -13 -30 -2 -38 -1 -19 1 19 2 39 9 45
14 5 5 18 9 29 9 14 0 17 -3 9 -11z m551 -110 c-15 -25 -158 -82 -339 -134
-64 -18 -208 -39 -345 -49 -106 -8 -88 7 30 24 106 15 428 97 485 123 80 36
99 42 135 43 22 1 37 -3 34 -7z m-2120 -44 c3 -8 2 -15 -3 -15 -5 0 -14 7 -21
15 -10 12 -10 15 3 15 8 0 17 -7 21 -15z m36 -35 c8 -5 12 -11 9 -14 -3 -3
-14 1 -25 9 -21 16 -8 20 16 5z m1410 -10 c0 -5 -7 -10 -16 -10 -8 0 -12 5 -9
10 3 6 10 10 16 10 5 0 9 -4 9 -10z m517 -96 c-3 -3 -12 -4 -19 -1 -8 3 -5 6
6 6 11 1 17 -2 13 -5z" />
        <path d="M5566 4411 c-4 -7 -5 -15 -2 -18 9 -9 19 4 14 18 -4 11 -6 11 -12 0z" />
        <path d="M7335 4323 c-38 -8 -109 -41 -207 -96 -85 -48 -227 -185 -274 -264
-23 -39 -52 -74 -68 -81 -14 -7 -38 -31 -51 -53 -14 -21 -29 -39 -34 -39 -4 0
-19 -16 -33 -35 -13 -19 -73 -87 -134 -151 -60 -64 -116 -126 -124 -138 -8
-12 -26 -33 -40 -47 -14 -14 -43 -46 -66 -70 -22 -24 -76 -75 -119 -114 -44
-38 -112 -100 -153 -138 -40 -37 -101 -86 -135 -109 -34 -23 -81 -58 -104 -80
-24 -21 -46 -38 -50 -38 -5 0 -23 -14 -42 -30 -18 -17 -40 -30 -47 -30 -7 0
-25 -11 -41 -24 -15 -13 -39 -27 -53 -31 -14 -4 -79 -33 -145 -65 -66 -32
-138 -63 -160 -70 -22 -7 -44 -16 -50 -20 -5 -4 -39 -15 -74 -24 -84 -22 -216
-84 -181 -87 14 -1 30 0 35 1 10 2 145 41 226 64 78 23 339 137 428 188 46 26
85 48 87 48 6 0 198 133 284 197 163 121 211 158 278 220 37 35 70 63 75 63 4
0 7 6 7 13 1 11 70 87 70 76 0 -18 -36 -71 -78 -114 -69 -72 -190 -179 -237
-211 -22 -14 -59 -44 -82 -65 -24 -22 -46 -39 -51 -39 -5 0 -20 -10 -33 -21
-13 -12 -35 -28 -49 -37 -14 -9 -41 -28 -60 -43 -19 -14 -62 -41 -95 -58 -32
-18 -66 -38 -75 -45 -8 -7 -35 -21 -60 -30 -25 -10 -76 -33 -115 -51 -38 -18
-92 -42 -118 -54 -87 -39 -280 -98 -379 -115 -53 -10 -105 -24 -115 -31 -34
-26 11 -28 114 -6 308 65 414 91 468 115 95 43 150 71 181 93 35 24 141 73
160 73 7 0 51 37 96 83 65 64 100 91 163 121 44 21 96 46 115 56 20 10 62 21
95 25 33 4 65 11 70 15 11 8 283 70 308 70 8 0 41 13 73 29 32 16 83 34 113
41 29 7 65 19 80 26 14 8 31 14 37 14 7 0 25 7 40 15 16 8 52 19 80 25 28 6
75 26 105 45 29 19 59 35 66 35 6 0 16 6 20 13 4 7 22 22 39 32 17 11 65 57
106 102 101 110 181 269 189 378 5 58 -13 221 -33 310 -18 78 -25 95 -58 126
-46 44 -110 59 -185 42z m120 -61 c27 -23 55 -75 55 -100 0 -12 4 -23 10 -27
5 -3 9 -18 9 -33 0 -15 5 -56 12 -92 29 -154 4 -274 -83 -404 -65 -96 -114
-142 -134 -125 -11 9 -14 7 -14 -12 0 -16 -11 -31 -34 -46 -33 -22 -34 -22
-39 -2 -4 16 -1 19 13 14 23 -7 37 14 19 27 -11 8 -10 9 4 4 12 -4 17 0 17 14
0 11 -6 20 -13 20 -8 0 -14 7 -14 16 0 10 7 14 18 11 12 -3 17 1 16 14 -1 14
-9 19 -29 19 -21 0 -28 5 -28 20 0 13 -7 20 -20 20 -18 0 -20 7 -20 60 l0 60
-80 0 -80 0 0 40 0 40 80 0 c73 0 80 2 80 20 0 17 -7 20 -40 20 l-40 0 0 40 0
40 40 0 40 0 0 40 c0 33 3 40 20 40 17 0 20 7 20 40 0 33 3 40 20 40 11 0 20
5 20 10 0 6 -13 10 -30 10 -23 0 -30 -5 -30 -19 0 -11 -5 -23 -11 -27 -8 -4
-9 4 -4 27 4 19 9 35 10 37 2 2 38 3 80 3 42 0 75 3 72 6 -10 9 20 33 43 33
22 0 39 28 23 39 -6 3 -12 15 -15 26 -3 15 -11 20 -36 20 -38 0 -38 1 -11 15
15 9 24 8 35 -1 11 -9 14 -8 14 5 0 20 10 20 35 -2z m-137 -47 c0 -23 -3 -24
-41 -18 -34 5 -39 4 -34 -10 4 -11 2 -14 -8 -11 -10 4 -12 -1 -8 -18 3 -16 2
-19 -4 -10 -8 10 -24 6 -74 -20 -35 -17 -67 -36 -70 -41 -4 -5 -15 -7 -25 -5
-12 2 7 19 62 53 43 28 88 56 99 63 31 19 79 41 91 42 6 0 12 -11 12 -25z
m-293 -184 c-13 -27 -45 -44 -45 -24 0 10 53 64 58 59 2 -2 -4 -18 -13 -35z
m-55 -91 c5 0 10 5 12 11 3 9 10 9 27 -1 22 -11 23 -11 18 9 -4 17 -3 20 7 12
7 -6 17 -7 22 -3 4 4 2 -1 -5 -10 -14 -19 -10 -21 27 -18 12 1 22 -3 22 -9 0
-6 -11 -11 -25 -11 -15 0 -28 -7 -32 -17 -10 -28 -46 -63 -65 -63 -14 0 -18 8
-18 33 0 22 -3 28 -9 18 -10 -15 -41 -8 -41 9 0 6 4 9 9 5 6 -3 15 4 21 15 9
16 8 20 -6 20 -15 0 -15 2 2 21 l19 21 3 -21 c2 -11 7 -21 12 -21z m-86 -68
c2 -4 -4 -9 -15 -9 -10 -1 -19 2 -19 8 0 11 27 12 34 1z m-58 -50 c-18 -16
-18 -16 -6 6 6 13 14 21 18 18 3 -4 -2 -14 -12 -24z m-35 -49 c-16 -29 -70
-89 -71 -78 0 6 14 25 30 43 17 18 30 37 30 43 0 5 5 9 10 9 7 0 7 -6 1 -17z
m429 -243 c0 -5 -2 -10 -4 -10 -3 0 -8 5 -11 10 -3 6 -1 10 4 10 6 0 11 -4 11
-10z m-690 -71 c0 -11 -4 -17 -10 -14 -5 3 -10 13 -10 21 0 8 5 14 10 14 6 0
10 -9 10 -21z m700 -69 c0 -5 -7 -10 -16 -10 -8 0 -12 5 -9 10 3 6 10 10 16
10 5 0 9 -4 9 -10z" />
        <path d="M7482 4175 c0 -16 2 -22 5 -12 2 9 2 23 0 30 -3 6 -5 -1 -5 -18z" />
        <path d="M7484 4058 c0 -10 3 -18 7 -18 4 0 9 8 11 18 3 10 0 19 -6 19 -7 0
-12 -9 -12 -19z" />
        <path d="M7521 3978 c-2 -41 -11 -58 -33 -58 -19 0 -20 -5 -15 -55 5 -52 4
-55 -19 -61 -30 -8 -29 -37 1 -43 11 -2 23 -8 27 -15 4 -6 8 4 8 22 0 22 5 32
15 32 8 0 15 7 15 16 0 8 4 13 8 10 4 -2 6 28 4 67 -3 85 -9 125 -11 85z" />
        <path d="M7440 3880 c0 -22 5 -40 10 -40 6 0 10 18 10 40 0 22 -4 40 -10 40
-5 0 -10 -18 -10 -40z" />
        <path d="M7140 3875 c0 -21 5 -25 30 -25 25 0 30 4 30 25 0 21 -5 25 -30 25
-25 0 -30 -4 -30 -25z" />
        <path d="M7402 3721 c-18 -11 -6 -78 13 -78 8 0 12 4 9 9 -3 4 -1 8 4 8 8 0
10 34 4 63 -2 9 -14 9 -30 -2z" />
        <path d="M7280 3660 c0 -23 10 -26 28 -8 18 18 15 28 -8 28 -13 0 -20 -7 -20
-20z" />
        <path d="M7305 3551 c-3 -5 -1 -12 5 -16 5 -3 10 1 10 9 0 18 -6 21 -15 7z" />
        <path d="M7370 3549 c0 -5 5 -7 10 -4 6 3 10 8 10 11 0 2 -4 4 -10 4 -5 0 -10
-5 -10 -11z" />
        <path d="M3620 4250 c0 -5 5 -10 10 -10 6 0 10 5 10 10 0 6 -4 10 -10 10 -5 0
-10 -4 -10 -10z" />
        <path d="M5192 4215 c-75 -39 -86 -48 -43 -35 17 6 46 14 64 20 43 13 77 31
77 42 0 15 -35 6 -98 -27z" />
    </g>
</svg>